<?xml version="1.0" encoding="UTF-8" standalone="no"?>
<!-- Created with Inkscape (http://www.inkscape.org/) -->

<svg
   xmlns:dc="http://purl.org/dc/elements/1.1/"
   xmlns:cc="http://creativecommons.org/ns#"
   xmlns:rdf="http://www.w3.org/1999/02/22-rdf-syntax-ns#"
   xmlns:svg="http://www.w3.org/2000/svg"
   xmlns="http://www.w3.org/2000/svg"
   xmlns:sodipodi="http://sodipodi.sourceforge.net/DTD/sodipodi-0.dtd"
   xmlns:inkscape="http://www.inkscape.org/namespaces/inkscape"
   width="344.14905"
   height="288.01495"
   viewBox="0 0 91.056103 76.203954"
   version="1.1"
   id="svg1890"
   inkscape:version="0.92.4 (5da689c313, 2019-01-14)"
   sodipodi:docname="IIT_Dharwad_Emblem.svg"
   inkscape:export-filename="D:\pCloud\IITDh\Admin\Institute\200217_IITDh_Logo\Logo\IITDh_Logo_IndigoYellow.png"
   inkscape:export-xdpi="96"
   inkscape:export-ydpi="96">
  <title
     id="title2589">IIT Dharwad Logo</title>
  <defs
     id="defs1884">
    <clipPath
       id="clipPath4015"
       clipPathUnits="userSpaceOnUse">
      <path
         inkscape:connector-curvature="0"
         id="path4013"
         d="M 335.58,525.072 H 507.005 V 549.12 H 335.58 Z" />
    </clipPath>
  </defs>
  <sodipodi:namedview
     id="base"
     pagecolor="#ffffff"
     bordercolor="#666666"
     borderopacity="1.0"
     inkscape:pageopacity="0.0"
     inkscape:pageshadow="2"
     inkscape:zoom="1.24"
     inkscape:cx="220.19238"
     inkscape:cy="111.69266"
     inkscape:document-units="px"
     inkscape:current-layer="layer1"
     showgrid="false"
     fit-margin-top="1"
     fit-margin-left="1"
     fit-margin-right="1"
     fit-margin-bottom="1"
     inkscape:window-width="1366"
     inkscape:window-height="705"
     inkscape:window-x="-8"
     inkscape:window-y="-8"
     inkscape:window-maximized="1"
     units="px"
     showborder="true"
     inkscape:showpageshadow="false" />
  <metadata
     id="metadata1887">
    <rdf:RDF>
      <cc:Work
         rdf:about="">
        <dc:format>image/svg+xml</dc:format>
        <dc:type
           rdf:resource="http://purl.org/dc/dcmitype/StillImage" />
        <dc:title>IIT Dharwad Logo</dc:title>
        <dc:date>18-03-2020</dc:date>
        <dc:rights>
          <cc:Agent>
            <dc:title>IIT Dharwad</dc:title>
          </cc:Agent>
        </dc:rights>
        <dc:contributor>
          <cc:Agent>
            <dc:title />
          </cc:Agent>
        </dc:contributor>
      </cc:Work>
    </rdf:RDF>
  </metadata>
  <g
     inkscape:label="Layer 1"
     inkscape:groupmode="layer"
     id="layer1"
     transform="translate(-40.99069,-106.46023)">
    <g
       id="g10494"
       transform="matrix(0.70602789,0,0,0.70274275,-93.468578,83.246488)"
       style="stroke-width:1.41968143">
      <path
         inkscape:connector-curvature="0"
         id="path1647"
         style="fill:#4b0082;fill-opacity:1;fill-rule:nonzero;stroke:none;stroke-width:0.50083208"
         d="m 254.45529,97.868255 c 0,0 -23.93103,-16.526933 -45.0215,-7.327547 0,0 22.67268,-6.228292 45.0215,14.288562 22.34777,-20.516854 46.30949,-14.288562 46.30949,-14.288562 -23.62411,-9.882011 -46.30949,7.327547 -46.30949,7.327547" />
      <path
         inkscape:connector-curvature="0"
         id="path1651"
         style="fill:#4b0082;fill-opacity:1;fill-rule:nonzero;stroke:none;stroke-width:0.50083208"
         d="m 251.82325,93.903632 c 0,0 -16.44614,-12.212813 -37.77826,-7.49053 l -6.02474,-7.164564 c 0,0 26.70492,-2.442633 43.803,14.655094" />
      <path
         inkscape:connector-curvature="0"
         id="path1655"
         style="fill:#4b0082;fill-opacity:1;fill-rule:nonzero;stroke:none;stroke-width:0.50083208"
         d="m 252.17533,92.88735 c 0,0 -11.78702,-15.452372 -33.6356,-15.408627 l -6.01204,-8.28922 c 0,0 26.60862,3.334103 39.64764,23.697847" />
      <path
         inkscape:connector-curvature="0"
         id="path1659"
         style="fill:#4b0082;fill-opacity:1;fill-rule:nonzero;stroke:none;stroke-width:0.50083208"
         d="m 258.37511,93.903632 c 0,0 16.44685,-12.212813 37.77827,-7.49053 l 6.02544,-7.164564 c 0,0 -26.70563,-2.442633 -43.80371,14.655094" />
      <path
         inkscape:connector-curvature="0"
         id="path1663"
         style="fill:#4b0082;fill-opacity:1;fill-rule:nonzero;stroke:none;stroke-width:0.50083208"
         d="m 258.02304,92.88735 c 0,0 11.78772,-15.452372 33.63595,-15.408627 l 6.01239,-8.28922 c 0,0 -26.60932,3.334103 -39.64834,23.697847" />
      <path
         inkscape:connector-curvature="0"
         id="path1667"
         style="fill:#4b0082;fill-opacity:1;fill-rule:nonzero;stroke:none;stroke-width:0.50083208"
         d="m 275.92753,53.992049 c 1.0541,-4.196645 1.39806,-8.752417 0.98249,-13.455297 -4.70323,1.404055 -8.95456,3.51155 -12.55536,6.184547 0.98319,3.205691 1.50354,6.45795 1.52576,9.672108 3.1302,-1.289403 6.5151,-2.090208 10.04711,-2.401358" />
      <path
         inkscape:connector-curvature="0"
         id="path1671"
         style="fill:#4b0082;fill-opacity:1;fill-rule:nonzero;stroke:none;stroke-width:0.50083208"
         d="m 260.96757,73.661455 c -1.17546,0.238125 -2.26131,0.346428 -3.20322,0.38347 0.67169,0.366889 1.44886,0.736953 2.32128,1.062214 4.25873,1.588911 8.64023,1.420989 13.02455,-0.497417 7.10636,-3.111853 13.22352,-9.183158 17.31151,-17.157347 -4.37021,-1.218141 -8.73548,-1.721908 -12.90249,-1.519414 -1.01353,3.449461 -2.49696,6.652684 -4.42701,9.495367 -3.75567,5.534378 -8.66634,7.531805 -12.12462,8.233127" />
      <path
         inkscape:connector-curvature="0"
         id="path1675"
         style="fill:#4b0082;fill-opacity:1;fill-rule:nonzero;stroke:none;stroke-width:0.50083208"
         d="m 245.78363,46.676037 c -3.58775,-2.651477 -7.81756,-4.743097 -12.49398,-6.139038 -0.41557,4.70288 -0.072,9.2583 0.98249,13.455297 3.50378,0.308327 6.86329,1.098197 9.97232,2.369608 0.0254,-3.219097 0.55033,-6.476294 1.53917,-9.685867" />
      <path
         inkscape:connector-curvature="0"
         id="path1679"
         style="fill:#4b0082;fill-opacity:1;fill-rule:nonzero;stroke:none;stroke-width:0.50083208"
         d="m 237.10681,65.428398 c -1.93005,-2.843036 -3.41277,-6.045552 -4.4263,-9.495013 -4.16701,-0.202142 -8.53193,0.301272 -12.90285,1.519061 4.08834,7.974189 10.20586,14.0462 17.31186,17.156994 4.38362,1.919111 8.76583,2.08668 13.02456,0.497769 0.87242,-0.325261 1.64959,-0.695325 2.32128,-1.062214 -0.94262,-0.03704 -2.02777,-0.144991 -3.20358,-0.383469 -3.45793,-0.701322 -8.36859,-2.69875 -12.12497,-8.233128" />
      <path
         inkscape:connector-curvature="0"
         id="path1683"
         style="fill:#4b0082;fill-opacity:1;fill-rule:nonzero;stroke:none;stroke-width:0.50083208"
         d="m 255.01374,53.274428 c 0.0296,0.04375 0.0568,0.08714 0.0857,0.130881 0.0296,-0.04375 0.0565,-0.08714 0.0868,-0.130881 1.83409,-2.702278 4.12009,-5.149144 6.77333,-7.28733 -1.47849,-4.2164 -3.80682,-8.330494 -6.89716,-12.118622 -3.07939,3.773664 -5.40173,7.87153 -6.88163,12.071702 2.67899,2.149828 4.9851,4.611864 6.83295,7.33425" />
      <path
         d="m 262.09547,66.509803 c 0.0332,3.863623 -3.07199,7.022747 -6.93561,7.055556 -3.86397,0.03316 -7.02239,-3.071989 -7.05626,-6.935964 -0.0332,-3.863269 3.07269,-7.022394 6.93596,-7.055555 3.86363,-0.03316 7.02275,3.071989 7.05591,6.935963"
         style="opacity:1;fill:#ffcc00;fill-opacity:1;fill-rule:nonzero;stroke:none;stroke-width:0.50083208"
         id="path1689"
         inkscape:connector-curvature="0" />
      <path
         inkscape:connector-curvature="0"
         id="path1691"
         style="fill:#1d1d1b;fill-opacity:1;fill-rule:nonzero;stroke:none;stroke-width:0.50083208"
         d="m 209.34073,127.442 c -0.0321,0.0374 -0.0882,0.0751 -0.16863,0.11219 -0.0801,0.0377 -0.18979,0.0568 -0.32879,0.0568 -0.12312,0 -0.24341,-0.0229 -0.36124,-0.0684 -0.11748,-0.0455 -0.2219,-0.1083 -0.31291,-0.18873 -0.091,-0.0804 -0.16299,-0.17498 -0.21661,-0.28469 -0.0533,-0.10936 -0.0801,-0.2286 -0.0801,-0.35701 0,-0.17639 0.0572,-0.31151 0.17251,-0.40535 0.115,-0.0931 0.242,-0.14005 0.381,-0.14005 h 0.0561 v -1.46226 c 0,-0.31397 -0.1203,-0.47167 -0.36089,-0.47167 -0.12312,0 -0.2219,0.0353 -0.29669,0.10478 -0.0751,0.0699 -0.11253,0.17709 -0.11253,0.32173 0,0.14005 0.0374,0.25859 0.11253,0.3556 0.0748,0.0974 0.15734,0.17075 0.24836,0.22084 l -0.44097,0.50553 c -0.0804,-0.0363 -0.16334,-0.0878 -0.24871,-0.15557 -0.0857,-0.067 -0.16193,-0.14888 -0.22896,-0.24448 -0.0667,-0.096 -0.12135,-0.20461 -0.16439,-0.32632 -0.0427,-0.12171 -0.0642,-0.25506 -0.0642,-0.40005 0,-0.15522 0.0293,-0.29739 0.0882,-0.42721 0.0589,-0.12947 0.14182,-0.24201 0.24871,-0.33796 0.10724,-0.0956 0.23389,-0.17075 0.38135,-0.22508 0.14676,-0.0547 0.30621,-0.0818 0.47731,-0.0818 0.39017,0 0.69109,0.10442 0.90276,0.31256 0.21096,0.20849 0.31679,0.50518 0.31679,0.89006 v 1.42134 h 1.22731 v -1.94169 h -0.72989 v -0.6738 h 2.27859 v 0.6738 h -0.68192 v 4.42877 h -0.86678 v -1.80551 h -1.22731 z" />
      <path
         inkscape:connector-curvature="0"
         id="path1695"
         style="fill:#1d1d1b;fill-opacity:1;fill-rule:nonzero;stroke:none;stroke-width:0.50083208"
         d="m 212.63804,124.22495 h -0.68192 v -0.6738 h 2.23061 v 0.6738 h -0.68192 v 4.42877 h -0.86677 z" />
      <path
         inkscape:connector-curvature="0"
         id="path1699"
         style="fill:#1d1d1b;fill-opacity:1;fill-rule:nonzero;stroke:none;stroke-width:0.50083208"
         d="m 216.81006,128.32462 -0.77011,0.46531 -1.49225,-2.24649 c -0.091,-0.12806 -0.15382,-0.2353 -0.18874,-0.32067 -0.0346,-0.0857 -0.0522,-0.16581 -0.0522,-0.24095 0,-0.12841 0.0522,-0.22966 0.15663,-0.3048 0.10442,-0.0748 0.23918,-0.11218 0.40534,-0.11218 l 0.1524,0.19261 c 0.11219,0.14958 0.24871,0.22437 0.40887,0.22437 0.17674,0 0.32385,-0.0653 0.44133,-0.1965 0.11783,-0.13088 0.17674,-0.3249 0.17674,-0.58173 0,-0.22436 -0.0349,-0.41839 -0.10442,-0.58137 -0.0695,-0.16334 -0.14182,-0.29563 -0.21661,-0.39723 h -1.70109 v -0.67381 h 3.50626 v 0.67381 h -0.93063 c 0.0695,0.091 0.14181,0.22613 0.2166,0.40499 0.0748,0.17921 0.11219,0.39475 0.11219,0.64593 0,0.22472 -0.0374,0.42404 -0.11219,0.59796 -0.0748,0.17357 -0.17251,0.31926 -0.2928,0.43709 -0.1203,0.11748 -0.25965,0.20744 -0.41734,0.26882 -0.15769,0.0617 -0.31679,0.0921 -0.47731,0.0921 h -0.0801 z" />
      <path
         inkscape:connector-curvature="0"
         id="path1703"
         style="fill:#1d1d1b;fill-opacity:1;fill-rule:nonzero;stroke:none;stroke-width:0.50083208"
         d="m 219.24109,125.9179 c -0.28893,0 -0.49883,0.072 -0.62971,0.21625 -0.13124,0.14464 -0.1965,0.33726 -0.1965,0.57785 0,0.28893 0.0586,0.57256 0.17639,0.85055 0.11747,0.27799 0.27799,0.5722 0.48119,0.88265 l -0.762,0.3369 c -0.21414,-0.3048 -0.39723,-0.63535 -0.54963,-0.99095 -0.1524,-0.3556 -0.2286,-0.73413 -0.2286,-1.13524 0,-0.48119 0.13758,-0.84243 0.4131,-1.08338 0.27552,-0.24024 0.64312,-0.36089 1.10314,-0.36089 h 1.24354 v -0.98672 h -3.16089 v -0.67381 h 4.70959 v 0.67381 h -0.68192 v 4.42877 h -0.86678 v -2.73579 z" />
      <path
         inkscape:connector-curvature="0"
         id="path1707"
         style="fill:#1d1d1b;fill-opacity:1;fill-rule:nonzero;stroke:none;stroke-width:0.50083208"
         d="m 222.36183,124.22495 h -0.68192 v -0.6738 h 0.6096 c -0.0427,-0.13935 -0.0935,-0.28364 -0.1524,-0.43357 -0.0589,-0.14958 -0.12947,-0.28575 -0.21237,-0.40922 -0.0833,-0.12277 -0.17921,-0.22472 -0.28893,-0.3048 -0.10971,-0.0804 -0.23671,-0.1203 -0.381,-0.1203 -0.16051,0 -0.2861,0.0469 -0.37712,0.14076 -0.091,0.0931 -0.13652,0.22825 -0.13652,0.40499 0,0.15487 0.024,0.29951 0.0723,0.43321 0.048,0.13335 0.10971,0.25647 0.1845,0.36865 l -0.60184,0.34537 -0.1203,-0.14428 c -0.10689,-0.14464 -0.1979,-0.30904 -0.27269,-0.49389 -0.0748,-0.18415 -0.11219,-0.37818 -0.11219,-0.58138 0,-0.1711 0.0307,-0.32914 0.0921,-0.47343 0.0617,-0.14428 0.14993,-0.26881 0.26458,-0.37324 0.11501,-0.10407 0.25294,-0.18556 0.41346,-0.24447 0.16051,-0.0589 0.34219,-0.0882 0.54539,-0.0882 0.29422,0 0.54822,0.0642 0.76235,0.19262 0.21379,0.12806 0.39441,0.28998 0.54152,0.48542 0.14711,0.19509 0.2674,0.40781 0.36089,0.63783 0.0935,0.23001 0.16475,0.44908 0.21272,0.65793 h 0.82656 v 0.6738 h -0.68192 v 4.42877 h -0.86677 z" />
      <path
         inkscape:connector-curvature="0"
         id="path1711"
         style="fill:#1d1d1b;fill-opacity:1;fill-rule:nonzero;stroke:none;stroke-width:0.50083208"
         d="m 227.08746,126.55971 v -2.33469 h -1.19556 c 0.0751,0.0854 0.14182,0.19262 0.20073,0.32068 0.0589,0.12841 0.0882,0.27269 0.0882,0.43356 0,0.35807 -0.11359,0.63359 -0.34113,0.82621 -0.22719,0.19261 -0.51717,0.30233 -0.8703,0.32879 0.0268,0.21942 0.13758,0.40816 0.33302,0.5655 0.19508,0.15804 0.46143,0.23671 0.79833,0.23671 0.2406,0 0.44662,-0.0384 0.61772,-0.11606 0.1711,-0.0773 0.29421,-0.16475 0.369,-0.2607 m 0.86643,-2.33469 v 4.42877 h -0.86643 v -1.28375 c -0.0748,0.0589 -0.19649,0.11924 -0.36512,0.18062 -0.16828,0.0614 -0.38912,0.0921 -0.66181,0.0921 -0.24589,0 -0.48825,-0.0392 -0.72602,-0.11712 -0.23812,-0.0776 -0.45085,-0.20038 -0.63782,-0.36724 -0.18733,-0.16651 -0.33832,-0.38171 -0.45332,-0.64558 -0.11501,-0.26353 -0.17251,-0.57821 -0.17251,-0.94404 h 0.19262 c 0.35807,0 0.62018,-0.054 0.78634,-0.16192 0.16545,-0.1076 0.24871,-0.28328 0.24871,-0.52635 0,-0.12947 -0.0282,-0.24941 -0.0847,-0.36018 -0.0561,-0.11042 -0.12135,-0.20885 -0.1965,-0.29528 h -1.26753 v -0.6738 h 4.88598 v 0.6738 z" />
      <path
         inkscape:connector-curvature="0"
         id="path1715"
         style="fill:#1d1d1b;fill-opacity:1;fill-rule:nonzero;stroke:none;stroke-width:0.50083208"
         d="m 231.65237,125.71703 c 0,0.25717 0.0628,0.43885 0.18874,0.54574 0.12559,0.10725 0.28998,0.16052 0.49318,0.16052 0.1711,0 0.32103,-0.0307 0.44944,-0.0924 0.12841,-0.0614 0.23248,-0.13758 0.31291,-0.2286 v -1.87713 h -1.44427 z m 2.99262,-1.4919 h -0.68192 v 4.42842 h -0.86643 v -1.72473 l -1.78928,1.88524 -0.7299,-0.61771 1.36384,-1.09114 c -0.16581,-0.0215 -0.31821,-0.0642 -0.45756,-0.12841 -0.13899,-0.0642 -0.2607,-0.14994 -0.36477,-0.25647 -0.10442,-0.10725 -0.18591,-0.23954 -0.24483,-0.39723 -0.0589,-0.15769 -0.0882,-0.33832 -0.0882,-0.54152 v -1.55645 h -0.48154 v -0.67416 h 4.34058 z" />
      <path
         inkscape:connector-curvature="0"
         id="path1719"
         style="fill:#1d1d1b;fill-opacity:1;fill-rule:nonzero;stroke:none;stroke-width:0.50083208"
         d="m 235.92049,123.55111 h 0.79446 v 0.67381 h -0.68192 v 4.42877 h -0.86678 v -4.42877 h -0.68192 v -0.67381 h 0.57785 l -0.24095,-0.1845 c -0.096,-0.0748 -0.18309,-0.13653 -0.26035,-0.18486 -0.0776,-0.048 -0.15416,-0.0854 -0.22895,-0.11218 -0.0748,-0.0265 -0.15099,-0.0452 -0.2286,-0.0561 -0.0776,-0.0109 -0.16157,-0.0159 -0.25259,-0.0159 -0.0963,0 -0.1912,0.012 -0.28504,0.0356 -0.0935,0.0243 -0.17251,0.0498 -0.23672,0.0766 l -0.20849,-0.61772 c 0.0804,-0.043 0.18345,-0.0801 0.30868,-0.11253 0.12594,-0.0321 0.25294,-0.048 0.38136,-0.048 0.24588,0 0.46813,0.0547 0.66604,0.16439 0.19756,0.10972 0.39829,0.28223 0.60149,0.51753 l 0.32102,0.36089 h 0.0321 l -0.2406,-0.56938 c -0.13934,-0.33691 -0.30233,-0.57503 -0.48965,-0.71438 -0.18698,-0.13864 -0.42228,-0.20814 -0.70591,-0.20814 -0.0642,0 -0.13229,0.004 -0.20461,0.012 -0.0723,0.008 -0.13476,0.0173 -0.18839,0.0279 l -0.0885,-0.69815 c 0.0642,-0.0162 0.14605,-0.0307 0.24482,-0.0441 0.0991,-0.0134 0.18592,-0.0198 0.26071,-0.0198 0.44944,0 0.79939,0.11077 1.05092,0.33267 0.25153,0.22225 0.44133,0.56585 0.56974,1.03117 z" />
      <path
         inkscape:connector-curvature="0"
         id="path1723"
         style="fill:#1d1d1b;fill-opacity:1;fill-rule:nonzero;stroke:none;stroke-width:0.50083208"
         d="m 239.37059,124.22495 v 1.24354 h -1.09926 c -0.15522,0 -0.27658,0.0307 -0.36512,0.0921 -0.0882,0.0617 -0.1323,0.15416 -0.1323,0.27693 0,0.13935 0.048,0.242 0.14429,0.30868 0.0963,0.0674 0.21414,0.10019 0.35313,0.10019 h 1.03505 v 0.64241 h -0.89076 c -0.36372,0 -0.5454,0.12806 -0.5454,0.38488 0,0.19261 0.0815,0.32879 0.24448,0.40922 0.16333,0.0801 0.39722,0.1203 0.70238,0.1203 0.28892,0 0.54151,-0.0466 0.75812,-0.14041 0.2166,-0.0938 0.39158,-0.21802 0.52528,-0.37288 v -3.06494 z m 0.73801,3.89114 c -0.139,0.10689 -0.3235,0.19932 -0.55351,0.27658 -0.23001,0.0776 -0.49742,0.11677 -0.80222,0.11677 -0.26776,0 -0.50941,-0.0272 -0.72637,-0.0804 -0.2166,-0.0533 -0.40393,-0.13229 -0.56127,-0.23671 -0.15804,-0.10442 -0.27975,-0.23248 -0.36547,-0.38523 -0.0854,-0.15205 -0.12806,-0.32985 -0.12806,-0.5334 0,-0.18733 0.0427,-0.3422 0.12806,-0.46532 0.0857,-0.12276 0.20355,-0.21942 0.35313,-0.28892 -0.0589,-0.0215 -0.12171,-0.0533 -0.18839,-0.0963 -0.067,-0.0427 -0.12841,-0.0963 -0.1845,-0.16051 -0.0561,-0.0639 -0.1016,-0.14006 -0.13653,-0.2286 -0.0349,-0.0882 -0.0522,-0.18839 -0.0522,-0.30092 0,-0.16052 0.0296,-0.29775 0.0885,-0.41311 0.0586,-0.115 0.13758,-0.20955 0.23671,-0.28469 0.0988,-0.0748 0.21379,-0.12947 0.34502,-0.16439 0.13088,-0.0349 0.26847,-0.0522 0.41275,-0.0522 H 238.52 v -0.59373 h -1.96568 v -0.6738 h 5.13468 v 0.6738 h -0.68192 v 4.50885 h -0.89852 z" />
      <path
         inkscape:connector-curvature="0"
         id="path1727"
         style="fill:#1d1d1b;fill-opacity:1;fill-rule:nonzero;stroke:none;stroke-width:0.50083208"
         d="m 239.84377,121.66562 c 0.0963,-0.0533 0.21801,-0.0963 0.36512,-0.12841 0.14711,-0.0321 0.2981,-0.0483 0.45332,-0.0483 0.41169,0 0.75424,0.10442 1.02694,0.31326 0.27269,0.2085 0.50271,0.48895 0.69003,0.84209 l 0.48119,0.90699 h 0.89888 v 0.6738 h -0.68192 v 4.42877 h -0.86678 v -4.42877 h -0.68192 v -0.6738 h 0.64982 l -0.3048,-0.45756 c -0.1711,-0.26176 -0.34078,-0.4572 -0.50941,-0.58561 -0.16863,-0.12876 -0.38382,-0.19261 -0.64594,-0.19261 -0.10689,0 -0.21272,0.012 -0.31679,0.036 -0.10442,0.0243 -0.19685,0.0522 -0.27693,0.0847 z" />
      <path
         inkscape:connector-curvature="0"
         id="path1731"
         style="fill:#1d1d1b;fill-opacity:1;fill-rule:nonzero;stroke:none;stroke-width:0.50083208"
         d="m 244.28055,124.22495 h -0.68192 v -0.6738 h 0.62582 c -0.0321,-0.0536 -0.0603,-0.12065 -0.0843,-0.20073 -0.024,-0.0801 -0.036,-0.17392 -0.036,-0.28082 0,-0.20355 0.0508,-0.3877 0.1524,-0.55386 0.1016,-0.16545 0.24341,-0.30585 0.42509,-0.42086 0.18169,-0.11501 0.39864,-0.2032 0.64982,-0.26494 0.25153,-0.0614 0.52423,-0.0924 0.81845,-0.0924 0.4385,0 0.84102,0.055 1.20755,0.16474 0.36619,0.10972 0.69921,0.25259 0.99872,0.42933 0.29951,0.17639 0.56303,0.37571 0.79022,0.59761 0.22754,0.2219 0.41839,0.4452 0.57362,0.66992 l 0.0564,0.0882 -0.58596,0.36089 -0.11995,-0.14429 c -0.14993,-0.17638 -0.32102,-0.35136 -0.51364,-0.52528 -0.19262,-0.17392 -0.40781,-0.32914 -0.64594,-0.46567 -0.23812,-0.13617 -0.49741,-0.2473 -0.77823,-0.33267 -0.28081,-0.0854 -0.58455,-0.12841 -0.91051,-0.12841 -0.40111,0 -0.70627,0.0751 -0.91476,0.22437 -0.20849,0.14993 -0.31291,0.34254 -0.31291,0.57785 0,0.0642 0.003,0.11783 0.008,0.16051 0.005,0.0427 0.0187,0.0882 0.0402,0.13653 h 0.78634 v 0.6738 h -0.68192 v 4.42877 h -0.86677 z" />
      <path
         inkscape:connector-curvature="0"
         id="path1735"
         style="fill:#1d1d1b;fill-opacity:1;fill-rule:nonzero;stroke:none;stroke-width:0.50083208"
         d="m 246.90415,126.15835 c 0.0589,-0.0533 0.11078,-0.14146 0.15629,-0.26458 0.0455,-0.12312 0.0684,-0.27023 0.0684,-0.44133 0,-0.25153 -0.0441,-0.47978 -0.13229,-0.6858 -0.0885,-0.20602 -0.20214,-0.38664 -0.34113,-0.54151 h -0.98672 v -0.67416 h 4.82176 v 0.67416 h -0.68192 v 4.42842 h -0.86642 v -4.42842 h -1.38818 c 0.1016,0.11218 0.2032,0.2861 0.30515,0.5214 0.10125,0.23531 0.1524,0.51894 0.1524,0.8502 0,0.25153 -0.0339,0.47484 -0.10054,0.67028 -0.0667,0.19508 -0.15522,0.35948 -0.26458,0.49318 -0.10971,0.1337 -0.23813,0.2353 -0.38523,0.3048 -0.14711,0.0699 -0.30092,0.10442 -0.46108,0.10442 -0.23566,0 -0.43639,-0.0709 -0.60184,-0.21237 -0.16616,-0.14217 -0.24906,-0.32773 -0.24906,-0.55774 0,-0.17639 0.055,-0.31433 0.16474,-0.4131 0.10936,-0.0991 0.23389,-0.14852 0.37289,-0.14852 z" />
      <path
         inkscape:connector-curvature="0"
         id="path1739"
         style="fill:#1d1d1b;fill-opacity:1;fill-rule:nonzero;stroke:none;stroke-width:0.50083208"
         d="m 253.05762,125.9017 c -0.091,-0.096 -0.19544,-0.17109 -0.31291,-0.22471 -0.11783,-0.0533 -0.25153,-0.0801 -0.40111,-0.0801 -0.21378,0 -0.39582,0.0628 -0.54539,0.18839 -0.14993,0.12559 -0.22472,0.31468 -0.22472,0.5655 0,0.25153 0.0681,0.44556 0.20461,0.58208 0.13617,0.13653 0.31679,0.20426 0.54151,0.20426 0.0963,0 0.18838,-0.0145 0.27658,-0.0441 0.0885,-0.0293 0.1658,-0.0734 0.23283,-0.1323 0.067,-0.0589 0.12171,-0.13652 0.1644,-0.23248 0.0427,-0.0967 0.0642,-0.20884 0.0642,-0.3369 z m 0.84244,2.75202 h -0.8502 v -1.12324 c -0.0699,0.091 -0.17956,0.16581 -0.32914,0.22472 -0.14993,0.0589 -0.32103,0.0882 -0.51364,0.0882 -0.2032,0 -0.39582,-0.0335 -0.5775,-0.10019 -0.18168,-0.067 -0.34255,-0.1658 -0.48154,-0.29703 -0.139,-0.13088 -0.25012,-0.2914 -0.33267,-0.48119 -0.0833,-0.1898 -0.12453,-0.41064 -0.12453,-0.66181 0,-0.23037 0.0388,-0.43357 0.11641,-0.60996 0.0773,-0.17674 0.18168,-0.32385 0.31292,-0.44132 0.13088,-0.11783 0.28363,-0.20602 0.4572,-0.26494 0.17392,-0.0586 0.35701,-0.0882 0.54962,-0.0882 0.18169,0 0.35419,0.0282 0.51753,0.0843 0.16298,0.0564 0.2981,0.13758 0.40534,0.24483 v -1.00295 h -2.71992 v -0.6738 h 6.39445 v 0.6738 h -2.82433 v 1.0668 c 0.0854,-0.11641 0.21272,-0.21096 0.381,-0.28363 0.16862,-0.0727 0.36265,-0.10936 0.58173,-0.10936 0.1979,0 0.38241,0.0314 0.55386,0.0935 0.17109,0.0624 0.32103,0.15276 0.44908,0.27164 0.12841,0.11889 0.23001,0.26635 0.3048,0.44203 0.0752,0.17604 0.11254,0.37501 0.11254,0.59655 0,0.24906 -0.0416,0.46673 -0.12453,0.65299 -0.0829,0.18697 -0.19544,0.34114 -0.3369,0.46285 -0.14147,0.1217 -0.30621,0.21202 -0.49319,0.27128 -0.18767,0.0596 -0.38805,0.0896 -0.60219,0.0896 -0.0589,0 -0.13088,-0.005 -0.21625,-0.0162 -0.0857,-0.0106 -0.14993,-0.0212 -0.19262,-0.0318 l 0.0963,-0.68227 c 0.0801,0.0162 0.16298,0.024 0.24871,0.024 0.19755,0 0.37006,-0.0624 0.51752,-0.18839 0.14711,-0.12559 0.22084,-0.31997 0.22084,-0.58243 0,-0.22402 -0.0635,-0.39758 -0.18909,-0.5207 -0.12559,-0.12277 -0.30056,-0.18451 -0.52528,-0.18451 -0.25682,0 -0.45226,0.0783 -0.58561,0.23531 -0.13371,0.15663 -0.20073,0.37006 -0.20073,0.64029 z" />
      <path
         inkscape:connector-curvature="0"
         id="path1743"
         style="fill:#1d1d1b;fill-opacity:1;fill-rule:nonzero;stroke:none;stroke-width:0.50083208"
         d="m 257.10148,124.22495 h -0.6417 v -0.6738 h 0.49741 c -0.0751,-0.13371 -0.17533,-0.27552 -0.30127,-0.42545 -0.12524,-0.14958 -0.27517,-0.28611 -0.44909,-0.40887 -0.17356,-0.12312 -0.37041,-0.22613 -0.58949,-0.30904 -0.21943,-0.0833 -0.46002,-0.12453 -0.72213,-0.12453 -0.21414,0 -0.39476,0.0254 -0.54187,0.0762 -0.14711,0.0508 -0.26705,0.11783 -0.36089,0.20038 -0.0935,0.0833 -0.16157,0.18062 -0.20461,0.29316 -0.0427,0.11254 -0.0642,0.22754 -0.0642,0.34502 0,0.17109 0.0268,0.30762 0.0801,0.40922 l -0.65758,0.20038 -0.0804,-0.10443 c -0.0748,-0.0854 -0.1337,-0.18556 -0.17639,-0.30056 -0.043,-0.11501 -0.0642,-0.23389 -0.0642,-0.35737 0,-0.19755 0.0441,-0.38594 0.13229,-0.56515 0.0882,-0.17921 0.2166,-0.33725 0.38523,-0.47342 0.16828,-0.13653 0.37818,-0.24377 0.62971,-0.32103 0.25153,-0.0776 0.53763,-0.11642 0.85831,-0.11642 0.41733,0 0.79057,0.067 1.11936,0.20073 0.32914,0.1337 0.61772,0.29951 0.86642,0.49707 0.24871,0.19826 0.45615,0.41204 0.62195,0.6424 0.16616,0.22966 0.28857,0.44345 0.36936,0.64171 h 0.80186 v 0.6738 h -0.64135 v 4.42877 h -0.86677 z" />
      <path
         inkscape:connector-curvature="0"
         id="path1747"
         style="fill:#1d1d1b;fill-opacity:1;fill-rule:nonzero;stroke:none;stroke-width:0.50083208"
         d="m 263.50383,126.09429 c 0.20885,0 0.38665,-0.024 0.5334,-0.0723 0.14746,-0.048 0.26846,-0.10972 0.36513,-0.18451 v -1.61254 h -1.56493 c 0.0699,0.091 0.14217,0.22613 0.21731,0.40534 0.0741,0.17886 0.11219,0.3944 0.11219,0.64593 0,0.28329 -0.0593,0.52952 -0.17639,0.73766 0.15487,0.054 0.32597,0.0804 0.51329,0.0804 m -0.45755,2.23026 -0.77012,0.46566 -1.50001,-2.23061 c -0.0864,-0.12841 -0.14746,-0.23389 -0.18485,-0.31679 -0.037,-0.0829 -0.0564,-0.16193 -0.0564,-0.23672 0,-0.1337 0.0536,-0.23671 0.16052,-0.30903 0.10759,-0.072 0.24341,-0.1083 0.40922,-0.1083 l 0.14464,0.19261 c 0.0586,0.0748 0.11994,0.13088 0.18485,0.16863 0.0639,0.0374 0.14111,0.0561 0.23213,0.0561 0.17145,0 0.3168,-0.0695 0.43745,-0.20884 0.12065,-0.13864 0.18062,-0.33691 0.18062,-0.59337 0,-0.22472 -0.0353,-0.41875 -0.10478,-0.58174 -0.0688,-0.16333 -0.14111,-0.29562 -0.21625,-0.39722 h -1.68487 v -0.67381 h 5.67232 v 0.67381 h -0.68227 v 4.42877 h -0.86607 v -1.95756 c -0.0854,0.0427 -0.19297,0.0748 -0.32103,0.0963 -0.12841,0.0212 -0.2861,0.0318 -0.47343,0.0318 -0.18732,0 -0.37959,-0.0293 -0.5775,-0.0882 -0.19826,-0.0589 -0.36653,-0.1337 -0.50553,-0.22437 -0.20355,0.12277 -0.42263,0.18451 -0.65828,0.18451 -0.0314,0 -0.0586,-0.003 -0.0797,-0.008 z" />
      <path
         inkscape:connector-curvature="0"
         id="path1751"
         style="fill:#1d1d1b;fill-opacity:1;fill-rule:nonzero;stroke:none;stroke-width:0.50083208"
         d="m 264.29758,122.40353 c 0,-0.12806 0.0512,-0.2473 0.15311,-0.35702 0.10124,-0.10936 0.2293,-0.16439 0.38488,-0.16439 0.16016,0 0.28892,0.055 0.38452,0.16439 0.0967,0.10972 0.14464,0.22896 0.14464,0.35702 0,0.14463 -0.0494,0.26916 -0.14816,0.37323 -0.0991,0.10443 -0.22578,0.15628 -0.381,0.15628 -0.15558,0 -0.28364,-0.0519 -0.38488,-0.15628 -0.10196,-0.10407 -0.15311,-0.2286 -0.15311,-0.37323" />
      <path
         inkscape:connector-curvature="0"
         id="path1755"
         style="fill:#1d1d1b;fill-opacity:1;fill-rule:nonzero;stroke:none;stroke-width:0.50083208"
         d="m 269.6416,125.86932 c 0.53481,-0.0462 0.9398,-0.16475 1.21532,-0.35489 0.27517,-0.1905 0.41275,-0.43992 0.41275,-0.7486 0,-0.18027 -0.0441,-0.31291 -0.13229,-0.39758 -0.0882,-0.0847 -0.19897,-0.12735 -0.33267,-0.12735 -0.13935,0 -0.2473,0.0406 -0.32526,0.12135 -0.0773,0.0804 -0.11642,0.18451 -0.11642,0.31151 0,0.0981 0.0226,0.18238 0.0681,0.25329 0.0455,0.0709 0.0981,0.12841 0.15733,0.17216 l -0.55421,0.3369 c -0.10654,-0.0614 -0.21131,-0.16193 -0.31256,-0.30092 -0.10231,-0.13935 -0.1524,-0.3168 -0.1524,-0.5334 0,-0.15452 0.0303,-0.29633 0.0924,-0.4251 0.061,-0.12876 0.14816,-0.23953 0.26035,-0.33231 0.11218,-0.0928 0.24447,-0.16616 0.39687,-0.22014 0.15311,-0.0543 0.32244,-0.0815 0.50977,-0.0815 0.2032,0 0.38664,0.0328 0.54927,0.0981 0.16334,0.0653 0.30233,0.15664 0.41734,0.27411 0.11536,0.11748 0.20355,0.25471 0.26458,0.41099 0.0614,0.15663 0.0924,0.32349 0.0924,0.50094 0,0.20885 -0.0399,0.40323 -0.12065,0.58314 -0.0797,0.18027 -0.19473,0.3422 -0.34431,0.48543 -0.15029,0.14358 -0.33549,0.26352 -0.55739,0.36053 -0.2226,0.0963 -0.47272,0.16299 -0.75036,0.19932 0.0427,0.15523 0.15099,0.29704 0.32456,0.4251 0.17427,0.12841 0.42933,0.19262 0.76623,0.19262 0.2727,0 0.51999,-0.0441 0.74189,-0.13229 0.2226,-0.0882 0.38665,-0.20179 0.49424,-0.34114 v -3.04835 h 1.54799 v 0.6738 h -0.68192 v 4.42877 h -0.86607 v -1.19556 c -0.091,0.0751 -0.24553,0.14993 -0.46178,0.22472 -0.21626,0.0751 -0.47484,0.11218 -0.77435,0.11218 -0.43286,0 -0.81033,-0.0882 -1.13065,-0.26458 -0.32138,-0.17674 -0.56233,-0.42792 -0.72214,-0.75424 -0.16051,0.0427 -0.33972,0.0642 -0.53834,0.0642 -0.2032,0 -0.39546,-0.0293 -0.57714,-0.0882 -0.18204,-0.0589 -0.34255,-0.13934 -0.4819,-0.24094 -0.19755,0.10724 -0.41134,0.16051 -0.64135,0.16051 h -0.0808 l 1.34867,1.62066 -0.77047,0.50553 -1.58891,-2.27048 c -0.0854,-0.12276 -0.14323,-0.22189 -0.17216,-0.29704 -0.0296,-0.0744 -0.0441,-0.14957 -0.0441,-0.22436 0,-0.13371 0.0522,-0.23672 0.15628,-0.30904 0.10407,-0.072 0.23354,-0.1083 0.38946,-0.1083 l 0.14394,0.19262 c 0.10195,0.1337 0.2413,0.20038 0.41769,0.20038 0.17074,0 0.31679,-0.0653 0.43673,-0.1965 0.12065,-0.13088 0.18063,-0.32491 0.18063,-0.58173 0,-0.21379 -0.0303,-0.40358 -0.0924,-0.56939 -0.0614,-0.16615 -0.12947,-0.30197 -0.20391,-0.40922 h -1.70956 v -0.6738 h 3.2893 v 0.6738 h -0.74542 c 0.0744,0.091 0.15099,0.2286 0.2279,0.41311 0.078,0.1845 0.11677,0.39722 0.11677,0.63782 0,0.14958 -0.0159,0.28469 -0.0483,0.40534 -0.0318,0.1203 -0.0773,0.23389 -0.13653,0.34078 0.0695,0.0268 0.15311,0.0494 0.24871,0.0681 0.0967,0.0191 0.19791,0.0282 0.30515,0.0282 0.0642,0 0.12841,-0.004 0.19227,-0.012 0.0642,-0.008 0.12629,-0.0229 0.18485,-0.0441 0,-0.0258 -10e-4,-0.054 -0.004,-0.0847 -0.003,-0.031 -0.004,-0.0621 -0.004,-0.0928 z" />
      <path
         inkscape:connector-curvature="0"
         id="path1759"
         style="fill:#1d1d1b;fill-opacity:1;fill-rule:nonzero;stroke:none;stroke-width:0.50083208"
         d="m 274.77617,124.22495 h -0.68227 v -0.6738 h 2.23062 v 0.6738 h -0.68228 v 4.42877 h -0.86607 z" />
      <path
         inkscape:connector-curvature="0"
         id="path1763"
         style="fill:#1d1d1b;fill-opacity:1;fill-rule:nonzero;stroke:none;stroke-width:0.50083208"
         d="m 279.11633,125.58886 v -1.36384 h -2.9524 v -0.6738 h 4.50145 v 0.6738 h -0.68228 v 4.42877 h -0.86677 v -2.36678 h -1.41182 l 0.0399,0.68157 c -0.0212,0.0268 -0.0709,0.0575 -0.14817,0.0924 -0.0776,0.0346 -0.17004,0.0522 -0.27693,0.0522 -0.24589,0 -0.44627,-0.0829 -0.60149,-0.2487 -0.15487,-0.16581 -0.23283,-0.37712 -0.23283,-0.63395 0,-0.19261 0.0571,-0.34748 0.17215,-0.46531 0.11501,-0.11747 0.29281,-0.17639 0.53411,-0.17639 z" />
      <path
         inkscape:connector-curvature="0"
         id="path1767"
         style="fill:#1d1d1b;fill-opacity:1;fill-rule:nonzero;stroke:none;stroke-width:0.50083208"
         d="m 285.93623,123.55111 h 1.54799 v 0.67381 h -0.68192 v 4.42877 h -0.86607 v -0.98672 c -0.0917,0.0691 -0.25577,0.13899 -0.49389,0.20849 -0.23777,0.0695 -0.51753,0.10442 -0.83785,0.10442 -0.54575,0 -0.97508,-0.115 -1.28799,-0.34537 -0.31291,-0.22965 -0.46919,-0.54257 -0.46919,-0.93838 0,-0.21943 0.0681,-0.40252 0.2039,-0.54999 0.13653,-0.14675 0.3041,-0.24729 0.50165,-0.30056 -0.10689,-0.0413 -0.21131,-0.096 -0.31291,-0.16334 -0.10125,-0.0674 -0.19156,-0.14922 -0.26847,-0.24483 -0.078,-0.0963 -0.14075,-0.20496 -0.18873,-0.32702 -0.0476,-0.12171 -0.072,-0.26035 -0.072,-0.41628 0,-0.16051 0.0289,-0.31115 0.0882,-0.45085 0.0586,-0.1404 0.14428,-0.26211 0.25646,-0.36583 0.11219,-0.10372 0.24871,-0.18556 0.40923,-0.24518 0.16051,-0.0593 0.34254,-0.0892 0.54574,-0.0892 0.20885,0 0.39194,0.0307 0.54998,0.0924 0.15699,0.0617 0.28999,0.14287 0.39688,0.24271 0.10654,0.10019 0.18732,0.21449 0.24024,0.3429 0.054,0.12876 0.0808,0.25682 0.0808,0.38523 0,0.16475 -0.0367,0.30727 -0.10831,0.42792 -0.0723,0.12065 -0.14605,0.20955 -0.22119,0.26564 l -0.63394,-0.26458 c 0.0483,-0.0441 0.0896,-0.10054 0.12488,-0.16898 0.0342,-0.0691 0.0522,-0.14535 0.0522,-0.2286 0,-0.12277 -0.0378,-0.22084 -0.11219,-0.29422 -0.0751,-0.0737 -0.18203,-0.11042 -0.32103,-0.11042 -0.12347,0 -0.23177,0.0444 -0.32526,0.1337 -0.0938,0.0885 -0.14075,0.22225 -0.14075,0.40005 0,0.26988 0.10195,0.48084 0.3055,0.63324 0.2032,0.15275 0.46496,0.22895 0.78599,0.22895 h 0.44097 v 0.68192 h -0.73801 c -0.21343,0 -0.37394,0.0392 -0.48084,0.11607 -0.10759,0.078 -0.16051,0.17815 -0.16051,0.30127 0,0.16051 0.0744,0.28857 0.22472,0.38523 0.14958,0.096 0.37394,0.14429 0.67381,0.14429 0.24588,0 0.48789,-0.0349 0.72601,-0.10442 0.23777,-0.0695 0.42651,-0.17357 0.56586,-0.31292 z" />
      <path
         inkscape:connector-curvature="0"
         id="path1771"
         style="fill:#1d1d1b;fill-opacity:1;fill-rule:nonzero;stroke:none;stroke-width:0.50083208"
         d="m 288.00569,124.22495 h -0.68227 v -0.6738 h 2.23061 v 0.6738 h -0.68227 v 4.42877 h -0.86607 z" />
      <path
         inkscape:connector-curvature="0"
         id="path1775"
         style="fill:#1d1d1b;fill-opacity:1;fill-rule:nonzero;stroke:none;stroke-width:0.50083208"
         d="m 292.17771,128.32462 -0.77046,0.46531 -1.49225,-2.24649 c -0.091,-0.12806 -0.15381,-0.2353 -0.18803,-0.32067 -0.0353,-0.0857 -0.0526,-0.16581 -0.0526,-0.24095 0,-0.12841 0.0526,-0.22966 0.15664,-0.3048 0.10407,-0.0748 0.23883,-0.11218 0.40498,-0.11218 l 0.1524,0.19261 c 0.11219,0.14958 0.24871,0.22437 0.40923,0.22437 0.17639,0 0.32385,-0.0653 0.44097,-0.1965 0.11783,-0.13088 0.17709,-0.3249 0.17709,-0.58173 0,-0.22436 -0.0353,-0.41839 -0.10477,-0.58137 -0.0695,-0.16334 -0.14182,-0.29563 -0.21625,-0.39723 h -1.70145 v -0.67381 h 3.50661 v 0.67381 h -0.93098 c 0.0695,0.091 0.14217,0.22613 0.21625,0.40499 0.0751,0.17921 0.11324,0.39475 0.11324,0.64593 0,0.22472 -0.0381,0.42404 -0.11324,0.59796 -0.0741,0.17357 -0.17215,0.31926 -0.2928,0.43709 -0.1196,0.11748 -0.25894,0.20744 -0.41663,0.26882 -0.15805,0.0617 -0.31715,0.0921 -0.47767,0.0921 h -0.0797 z" />
      <path
         inkscape:connector-curvature="0"
         id="path1779"
         style="fill:#1d1d1b;fill-opacity:1;fill-rule:nonzero;stroke:none;stroke-width:0.50083208"
         d="m 295.47467,125.98196 c -0.0801,-0.11218 -0.19509,-0.2099 -0.34467,-0.2928 -0.14993,-0.0829 -0.3182,-0.12453 -0.50553,-0.12453 -0.2674,0 -0.48013,0.067 -0.63817,0.20073 -0.15769,0.1337 -0.23636,0.33161 -0.23636,0.59372 0,0.28893 0.0815,0.49848 0.24483,0.62971 0.16333,0.13123 0.381,0.1965 0.65369,0.1965 0.23037,0 0.4251,-0.0691 0.58561,-0.20849 0.16052,-0.139 0.2406,-0.31292 0.2406,-0.52141 z m -1.03505,-1.11513 c 0.25153,0 0.45755,0.0346 0.61807,0.10442 0.16051,0.0695 0.29703,0.14958 0.40957,0.24025 v -0.98637 h -2.96933 v -0.67416 h 4.51732 v 0.67416 h -0.68192 v 4.42842 h -0.86607 v -1.07527 c -0.0699,0.0698 -0.18062,0.13935 -0.33373,0.20885 -0.15204,0.0695 -0.35419,0.10442 -0.60572,0.10442 -0.22436,0 -0.43815,-0.0335 -0.64135,-0.10054 -0.2032,-0.0667 -0.381,-0.16581 -0.5341,-0.29669 -0.15205,-0.13088 -0.27199,-0.29563 -0.36089,-0.49318 -0.0882,-0.19826 -0.1323,-0.42545 -0.1323,-0.68228 0,-0.46531 0.14605,-0.82373 0.43745,-1.07526 0.29139,-0.25118 0.67239,-0.37677 1.143,-0.37677" />
      <path
         inkscape:connector-curvature="0"
         id="path1783"
         style="fill:#1d1d1b;fill-opacity:1;fill-rule:nonzero;stroke:none;stroke-width:0.50083208"
         d="m 297.5369,124.22495 h -0.68227 v -0.6738 h 2.23061 v 0.6738 h -0.68156 v 4.42877 h -0.86678 z" />
      <path
         inkscape:connector-curvature="0"
         id="path1787"
         style="fill:#1d1d1b;fill-opacity:1;fill-rule:nonzero;stroke:none;stroke-width:0.50083208"
         d="m 300.26472,127.07303 c -0.10195,-0.0586 -0.20461,-0.12947 -0.30868,-0.21272 -0.10477,-0.0825 -0.20108,-0.17639 -0.28928,-0.28046 -0.0882,-0.10442 -0.15981,-0.21943 -0.2166,-0.34502 -0.0564,-0.12559 -0.084,-0.25788 -0.084,-0.39722 0,-0.29987 0.0984,-0.54681 0.29703,-0.7419 0.19756,-0.19544 0.50236,-0.29315 0.9144,-0.29315 h 1.05904 v -0.5775 h -2.71215 v -0.67381 h 4.34834 v 0.67381 h -0.76941 v 1.26753 h -1.77377 c -0.15487,0 -0.27411,0.0335 -0.35666,0.10019 -0.0829,0.067 -0.12417,0.16192 -0.12417,0.28469 0,0.0857 0.024,0.16616 0.0716,0.24095 0.0483,0.0748 0.1076,0.13899 0.17709,0.19261 0.14394,-0.0427 0.28046,-0.0723 0.40852,-0.0882 0.12912,-0.0162 0.25435,-0.0243 0.37783,-0.0243 0.50235,0 0.89288,0.11112 1.17122,0.33302 0.27763,0.22225 0.41698,0.51752 0.41698,0.88688 0,0.36372 -0.14534,0.66146 -0.43709,0.89429 -0.2921,0.23284 -0.71861,0.3489 -1.28023,0.3489 -0.21343,0 -0.41804,-0.0187 -0.61313,-0.0561 -0.19579,-0.0374 -0.37747,-0.0882 -0.54575,-0.1524 -0.16862,-0.0646 -0.32243,-0.13653 -0.46143,-0.21661 -0.13935,-0.0804 -0.25929,-0.16298 -0.36124,-0.2487 l 0.39334,-0.60184 c 0.21943,0.17674 0.46108,0.31432 0.72637,0.41345 0.26459,0.0988 0.54152,0.14817 0.83044,0.14817 0.2988,0 0.51859,-0.0494 0.65793,-0.14817 0.13829,-0.0991 0.20814,-0.23177 0.20814,-0.39723 0,-0.16051 -0.067,-0.28363 -0.20073,-0.369 -0.1337,-0.0854 -0.32032,-0.12876 -0.56127,-0.12876 -0.16087,0 -0.31856,0.0138 -0.47343,0.0406 -0.15522,0.0265 -0.31855,0.0695 -0.4893,0.12806" />
      <path
         d="m 191.25664,134.07268 h 1.05339 v 4.92619 h -1.05339 z"
         style="opacity:1;fill:#1d1d1b;fill-opacity:1;fill-rule:nonzero;stroke:none;stroke-width:0.50083208"
         id="path1791"
         inkscape:connector-curvature="0" />
      <path
         inkscape:connector-curvature="0"
         id="path1793"
         style="fill:#1d1d1b;fill-opacity:1;fill-rule:nonzero;stroke:none;stroke-width:0.50083208"
         d="m 193.22009,136.17876 c 0,-0.0138 0,-0.387 -0.0205,-0.62477 h 0.96485 l 0.0272,0.51576 c 0.0945,-0.15628 0.36689,-0.59725 1.11443,-0.59725 0.6731,0 0.95814,0.4071 1.04598,0.64487 0.0755,0.21096 0.0953,0.38771 0.0953,1.02623 v 1.85526 h -1.02587 v -2.13325 c 0,-0.14252 0,-0.26564 -0.0543,-0.37394 -0.0748,-0.14958 -0.23037,-0.2921 -0.48895,-0.2921 -0.21767,0 -0.41487,0.10195 -0.52352,0.26458 -0.0614,0.0889 -0.12207,0.25894 -0.12207,0.52353 v 2.01118 h -1.01247 z" />
      <path
         inkscape:connector-curvature="0"
         id="path1797"
         style="fill:#1d1d1b;fill-opacity:1;fill-rule:nonzero;stroke:none;stroke-width:0.50083208"
         d="m 198.88609,138.41427 c 0.29245,0 0.53058,-0.17674 0.63888,-0.38699 0.14923,-0.28505 0.16298,-0.63853 0.16298,-0.80892 0,-0.6731 -0.29174,-1.03964 -0.74718,-1.03964 -0.67275,0 -0.74718,0.80892 -0.74718,1.155 0,0.57114 0.18979,1.08055 0.6925,1.08055 m 0.76765,-4.32117 h 1.01247 v 4.34869 c 0,0.20426 0.0141,0.42757 0.0272,0.55704 h -1.01917 l -0.0272,-0.49601 c -0.0677,0.12241 -0.13582,0.25153 -0.34607,0.38735 -0.25189,0.16369 -0.51682,0.1771 -0.6664,0.1771 -0.91687,0 -1.46121,-0.63183 -1.46121,-1.70604 0,-1.13488 0.61878,-1.84115 1.51589,-1.84115 0.61877,0 0.87665,0.34643 0.9645,0.46849 z" />
      <path
         d="m 201.56833,135.55999 h 1.00542 v 3.43888 h -1.00542 z m -0.0339,-1.46685 h 1.07315 v 0.87594 h -1.07315 z"
         style="opacity:1;fill:#1d1d1b;fill-opacity:1;fill-rule:nonzero;stroke:none;stroke-width:0.50083208"
         id="path1801"
         inkscape:connector-curvature="0" />
      <path
         inkscape:connector-curvature="0"
         id="path1803"
         style="fill:#1d1d1b;fill-opacity:1;fill-rule:nonzero;stroke:none;stroke-width:0.50083208"
         d="m 204.27922,137.93919 c 0,0.23071 0.15628,0.4886 0.4893,0.4886 0.18309,0 0.33267,-0.0882 0.42827,-0.19685 0.17674,-0.21696 0.19015,-0.4826 0.19015,-0.84914 -0.64558,-0.0543 -1.10772,0.14958 -1.10772,0.55739 m 1.23684,1.05974 c -0.0342,-0.21025 -0.0342,-0.36689 -0.0342,-0.46919 -0.38065,0.55033 -0.83609,0.55033 -1.02553,0.55033 -0.496,0 -0.72072,-0.14252 -0.8569,-0.27128 -0.20355,-0.20391 -0.2988,-0.48225 -0.2988,-0.75424 0,-0.272 0.0952,-0.77506 0.72672,-1.0668 0.42193,-0.18945 1.02659,-0.18945 1.35961,-0.18945 0,-0.22507 -0.007,-0.33443 -0.048,-0.45614 -0.0882,-0.25153 -0.35313,-0.2861 -0.44909,-0.2861 -0.14181,0 -0.29104,0.0614 -0.37994,0.1905 -0.0744,0.11571 -0.0744,0.22437 -0.0744,0.30621 h -0.98496 c 0.006,-0.18309 0.0272,-0.55033 0.387,-0.80857 0.31256,-0.22401 0.71332,-0.27834 1.03928,-0.27834 0.2854,0 0.88371,0.0473 1.22344,0.44062 0.23071,0.2787 0.23777,0.68721 0.23777,0.84314 l 0.007,1.37936 c 0,0.29246 0.0205,0.58456 0.0811,0.86995 z" />
      <path
         inkscape:connector-curvature="0"
         id="path1807"
         style="fill:#1d1d1b;fill-opacity:1;fill-rule:nonzero;stroke:none;stroke-width:0.50083208"
         d="m 207.24714,136.17876 c 0,-0.0138 0,-0.387 -0.0205,-0.62477 h 0.96415 l 0.0279,0.51576 c 0.0949,-0.15628 0.36688,-0.59725 1.11442,-0.59725 0.6724,0 0.95815,0.4071 1.04563,0.64487 0.0748,0.21096 0.0956,0.38771 0.0956,1.02623 v 1.85526 h -1.02588 v -2.13325 c 0,-0.14252 0,-0.26564 -0.054,-0.37394 -0.0748,-0.14958 -0.23107,-0.2921 -0.4893,-0.2921 -0.21766,0 -0.41451,0.10195 -0.52317,0.26458 -0.0617,0.0889 -0.12241,0.25894 -0.12241,0.52353 v 2.01118 h -1.01247 z" />
      <path
         d="m 213.23787,134.07268 h 1.05304 v 4.92619 h -1.05304 z"
         style="opacity:1;fill:#1d1d1b;fill-opacity:1;fill-rule:nonzero;stroke:none;stroke-width:0.50083208"
         id="path1811"
         inkscape:connector-curvature="0" />
      <path
         inkscape:connector-curvature="0"
         id="path1813"
         style="fill:#1d1d1b;fill-opacity:1;fill-rule:nonzero;stroke:none;stroke-width:0.50083208"
         d="m 215.20136,136.17876 c 0,-0.0138 0,-0.387 -0.0208,-0.62477 h 0.96485 l 0.0279,0.51576 c 0.0949,-0.15628 0.36654,-0.59725 1.11478,-0.59725 0.67204,0 0.95779,0.4071 1.04598,0.64487 0.0751,0.21096 0.0945,0.38771 0.0945,1.02623 v 1.85526 h -1.02623 v -2.13325 c 0,-0.14252 0,-0.26564 -0.054,-0.37394 -0.0748,-0.14958 -0.23036,-0.2921 -0.48895,-0.2921 -0.21766,0 -0.41486,0.10195 -0.52317,0.26458 -0.0614,0.0889 -0.12206,0.25894 -0.12206,0.52353 v 2.01118 h -1.01282 z" />
      <path
         inkscape:connector-curvature="0"
         id="path1817"
         style="fill:#1d1d1b;fill-opacity:1;fill-rule:nonzero;stroke:none;stroke-width:0.50083208"
         d="m 220.07202,138.00742 c 0.0141,0.21695 0.14958,0.46813 0.57115,0.46813 0.35983,0 0.52987,-0.20426 0.52987,-0.40816 0,-0.15558 -0.0811,-0.27834 -0.4759,-0.38665 l -0.62512,-0.17004 c -0.2787,-0.0815 -0.86889,-0.25153 -0.86889,-0.95144 0,-0.66498 0.61066,-1.0735 1.50107,-1.0735 0.70696,0 1.2774,0.32632 1.30457,1.01282 h -0.91687 c -0.0272,-0.381 -0.33338,-0.40816 -0.4893,-0.40816 -0.27164,0 -0.47555,0.12912 -0.47555,0.33973 0,0.23177 0.16969,0.27834 0.46849,0.36053 l 0.61877,0.16969 c 0.62407,0.16969 0.91723,0.48895 0.91723,0.95815 0,0.59125 -0.51012,1.18251 -1.57657,1.18251 -0.44168,0 -0.86325,-0.096 -1.17545,-0.42122 -0.22437,-0.23813 -0.24483,-0.50976 -0.25118,-0.67239 z" />
      <path
         inkscape:connector-curvature="0"
         id="path1821"
         style="fill:#1d1d1b;fill-opacity:1;fill-rule:nonzero;stroke:none;stroke-width:0.50083208"
         d="m 224.90275,138.95138 c -0.32597,0.0882 -0.61807,0.10971 -0.78141,0.10971 -1.01212,0 -1.01212,-0.63958 -1.01212,-0.92533 v -1.88172 h -0.65899 v -0.6664 h 0.65899 v -0.67239 l 0.99872,-0.36689 v 1.03928 h 0.81491 v 0.6664 h -0.81491 v 1.54869 c 0.007,0.31221 0.007,0.50941 0.45579,0.50941 0.14922,0 0.2166,-0.006 0.33902,-0.0194 z" />
      <path
         d="m 225.54029,135.55999 h 1.00541 v 3.43888 h -1.00541 z m -0.0342,-1.46685 h 1.07385 v 0.87594 h -1.07385 z"
         style="opacity:1;fill:#1d1d1b;fill-opacity:1;fill-rule:nonzero;stroke:none;stroke-width:0.50083208"
         id="path1825"
         inkscape:connector-curvature="0" />
      <path
         inkscape:connector-curvature="0"
         id="path1827"
         style="fill:#1d1d1b;fill-opacity:1;fill-rule:nonzero;stroke:none;stroke-width:0.50083208"
         d="m 229.50177,138.95138 c -0.32632,0.0882 -0.61772,0.10971 -0.7814,0.10971 -1.01212,0 -1.01212,-0.63958 -1.01212,-0.92533 v -1.88172 h -0.65935 v -0.6664 h 0.65935 v -0.67239 l 0.99871,-0.36689 v 1.03928 h 0.81562 v 0.6664 h -0.81562 v 1.54869 c 0.007,0.31221 0.007,0.50941 0.45544,0.50941 0.14887,0 0.21731,-0.006 0.33937,-0.0194 z" />
      <path
         inkscape:connector-curvature="0"
         id="path1831"
         style="fill:#1d1d1b;fill-opacity:1;fill-rule:nonzero;stroke:none;stroke-width:0.50083208"
         d="m 231.12441,135.5669 v 2.04576 c 0,0.29915 0,0.75459 0.53692,0.75459 0.64488,0 0.64488,-0.4826 0.64488,-1.06751 v -1.73284 h 1.03399 v 2.26342 c 0.0123,0.74083 0.019,0.82868 0.019,0.91722 0.007,0.0949 0.0141,0.15628 0.0275,0.25153 h -0.97825 l -0.0342,-0.45543 c -0.10196,0.14922 -0.35984,0.54363 -1.01212,0.54363 -0.46214,0 -0.84244,-0.21096 -1.03329,-0.46214 -0.22401,-0.27905 -0.22401,-0.75424 -0.22401,-0.92393 v -2.1343 z" />
      <path
         inkscape:connector-curvature="0"
         id="path1835"
         style="fill:#1d1d1b;fill-opacity:1;fill-rule:nonzero;stroke:none;stroke-width:0.50083208"
         d="m 236.33529,138.95138 c -0.32668,0.0882 -0.61842,0.10971 -0.78176,0.10971 -1.01247,0 -1.01247,-0.63958 -1.01247,-0.92533 v -1.88172 h -0.65934 v -0.6664 h 0.65934 v -0.67239 l 0.99871,-0.36689 v 1.03928 h 0.81598 v 0.6664 h -0.81598 v 1.54869 c 0.007,0.31221 0.007,0.50941 0.45579,0.50941 0.14923,0 0.21731,-0.006 0.33973,-0.0194 z" />
      <path
         inkscape:connector-curvature="0"
         id="path1839"
         style="fill:#1d1d1b;fill-opacity:1;fill-rule:nonzero;stroke:none;stroke-width:0.50083208"
         d="m 239.02814,136.90636 c 0,-0.15663 -0.0145,-0.768 -0.5976,-0.768 -0.44203,0 -0.62512,0.36654 -0.64558,0.768 z m -1.2774,0.63183 c 0,0.22436 0,0.91722 0.69955,0.91722 0.25118,0 0.50271,-0.0952 0.59832,-0.47555 h 0.91757 c -0.0138,0.16263 -0.0483,0.45544 -0.32702,0.74683 -0.25083,0.26529 -0.69956,0.40182 -1.20157,0.40182 -0.2928,0 -0.85019,-0.0543 -1.21038,-0.42827 -0.3122,-0.32668 -0.44132,-0.78811 -0.44132,-1.33915 0,-0.55739 0.13547,-1.22273 0.71367,-1.62384 0.26458,-0.17709 0.5909,-0.28539 0.96449,-0.28539 0.48895,0 1.07386,0.1905 1.38607,0.82938 0.23142,0.46849 0.21801,0.97155 0.20355,1.25695 z" />
      <path
         inkscape:connector-curvature="0"
         id="path1843"
         style="fill:#1d1d1b;fill-opacity:1;fill-rule:nonzero;stroke:none;stroke-width:0.50083208"
         d="m 244.23715,138.42151 c 0.44168,0 0.74119,-0.26459 0.74119,-1.17581 0,-0.45509 -0.0885,-1.08691 -0.75494,-1.08691 -0.73343,0 -0.74048,0.84949 -0.74048,1.1617 0,0.76799 0.25823,1.10102 0.75423,1.10102 m -0.0138,-2.93582 c 1.24354,0 1.78082,0.84243 1.78082,1.80093 0,0.96485 -0.55774,1.83444 -1.80093,1.83444 -0.97825,0 -1.75295,-0.60466 -1.75295,-1.80798 0,-0.82832 0.42121,-1.82739 1.77306,-1.82739" />
      <path
         inkscape:connector-curvature="0"
         id="path1847"
         style="fill:#1d1d1b;fill-opacity:1;fill-rule:nonzero;stroke:none;stroke-width:0.50083208"
         d="m 246.85611,136.28106 h -0.51012 v -0.71402 h 0.51012 v -0.46884 c 0,-0.60396 0.2039,-1.09397 1.18251,-1.09397 0.0681,0 0.25788,0 0.54328,0.0339 v 0.70062 c -0.10196,-0.0134 -0.12912,-0.0205 -0.21132,-0.0205 -0.51647,0 -0.51647,0.27199 -0.51647,0.44838 v 0.4004 h 0.63959 v 0.71402 h -0.63959 v 2.7178 h -0.998 z" />
      <path
         inkscape:connector-curvature="0"
         id="path1851"
         style="fill:#1d1d1b;fill-opacity:1;fill-rule:nonzero;stroke:none;stroke-width:0.50083208"
         d="m 252.05217,134.90096 h -1.46085 v -0.81456 h 3.9818 v 0.81456 h -1.46085 v 4.09787 h -1.0601 z" />
      <path
         inkscape:connector-curvature="0"
         id="path1855"
         style="fill:#1d1d1b;fill-opacity:1;fill-rule:nonzero;stroke:none;stroke-width:0.50083208"
         d="m 256.61916,136.90636 c 0,-0.15663 -0.0138,-0.768 -0.59796,-0.768 -0.44168,0 -0.62441,0.36654 -0.64558,0.768 z m -1.27847,0.63183 c 0,0.22436 0,0.91722 0.70027,0.91722 0.25223,0 0.50376,-0.0952 0.59831,-0.47555 h 0.91757 c -0.0145,0.16263 -0.0483,0.45544 -0.32667,0.74683 -0.25118,0.26529 -0.69991,0.40182 -1.20226,0.40182 -0.2921,0 -0.84914,-0.0543 -1.20968,-0.42827 -0.31221,-0.32668 -0.44168,-0.78811 -0.44168,-1.33915 0,-0.55739 0.13547,-1.22273 0.71332,-1.62384 0.26564,-0.17709 0.59161,-0.28539 0.96555,-0.28539 0.4893,0 1.0735,0.1905 1.38642,0.82938 0.23001,0.46849 0.21696,0.97155 0.20249,1.25695 z" />
      <path
         inkscape:connector-curvature="0"
         id="path1859"
         style="fill:#1d1d1b;fill-opacity:1;fill-rule:nonzero;stroke:none;stroke-width:0.50083208"
         d="m 260.20896,136.7837 c -0.0145,-0.12206 -0.0543,-0.63183 -0.44098,-0.63183 -0.47695,0 -0.53057,0.72073 -0.53057,1.09397 0,0.18979 0.0201,0.80186 0.25153,1.05339 0.0952,0.1016 0.1972,0.11501 0.27164,0.11501 0.10865,0 0.42157,-0.0473 0.46143,-0.65899 h 0.99236 c -0.013,0.26564 -0.0476,0.68016 -0.44097,1.01247 -0.24483,0.21096 -0.55139,0.31927 -0.9786,0.31927 -0.45544,0 -0.85655,-0.1016 -1.16911,-0.45509 -0.29986,-0.34607 -0.43497,-0.80151 -0.43497,-1.35255 0,-1.5621 1.14864,-1.77976 1.60408,-1.77976 0.63888,0 1.39312,0.35313 1.39947,1.28411 z" />
      <path
         inkscape:connector-curvature="0"
         id="path1863"
         style="fill:#1d1d1b;fill-opacity:1;fill-rule:nonzero;stroke:none;stroke-width:0.50083208"
         d="m 261.90254,134.0931 h 0.99836 v 1.94345 c 0.11641,-0.16298 0.36795,-0.51647 0.99307,-0.51647 0.50976,0 0.83573,0.25083 0.99977,0.46179 0.121,0.17004 0.22296,0.48225 0.22296,0.93133 v 2.08563 h -0.99907 v -2.05176 c 0,-0.19755 0,-0.74754 -0.56339,-0.74754 -0.28539,0 -0.64558,0.16299 -0.64558,0.69992 l 0.007,2.09938 h -1.01282 z" />
      <path
         inkscape:connector-curvature="0"
         id="path1867"
         style="fill:#1d1d1b;fill-opacity:1;fill-rule:nonzero;stroke:none;stroke-width:0.50083208"
         d="m 266.02496,136.17876 c 0,-0.0138 0,-0.387 -0.0201,-0.62477 h 0.96414 l 0.0275,0.51576 c 0.0949,-0.15628 0.36724,-0.59725 1.11477,-0.59725 0.6731,0 0.9585,0.4071 1.04599,0.64487 0.0751,0.21096 0.0949,0.38771 0.0949,1.02623 v 1.85526 H 268.227 v -2.13325 c 0,-0.14252 0,-0.26564 -0.055,-0.37394 -0.0744,-0.14958 -0.23071,-0.2921 -0.48859,-0.2921 -0.21767,0 -0.41487,0.10195 -0.52353,0.26458 -0.0621,0.0889 -0.12276,0.25894 -0.12276,0.52353 v 2.01118 H 266.025 Z" />
      <path
         inkscape:connector-curvature="0"
         id="path1871"
         style="fill:#1d1d1b;fill-opacity:1;fill-rule:nonzero;stroke:none;stroke-width:0.50083208"
         d="m 271.7824,138.42151 c 0.44167,0 0.74153,-0.26459 0.74153,-1.17581 0,-0.45509 -0.0889,-1.08691 -0.75459,-1.08691 -0.73448,0 -0.74083,0.84949 -0.74083,1.1617 0,0.76799 0.25859,1.10102 0.75389,1.10102 m -0.0131,-2.93582 c 1.24354,0 1.77977,0.84243 1.77977,1.80093 0,0.96485 -0.55669,1.83444 -1.80058,1.83444 -0.97896,0 -1.7526,-0.60466 -1.7526,-1.80798 0,-0.82832 0.42016,-1.82739 1.77341,-1.82739" />
      <path
         d="m 274.31322,134.08643 h 1.00613 v 4.91244 h -1.00613 z"
         style="opacity:1;fill:#1d1d1b;fill-opacity:1;fill-rule:nonzero;stroke:none;stroke-width:0.50083208"
         id="path1875"
         inkscape:connector-curvature="0" />
      <path
         inkscape:connector-curvature="0"
         id="path1877"
         style="fill:#1d1d1b;fill-opacity:1;fill-rule:nonzero;stroke:none;stroke-width:0.50083208"
         d="m 277.84785,138.42151 c 0.44238,0 0.74153,-0.26459 0.74153,-1.17581 0,-0.45509 -0.0882,-1.08691 -0.75388,-1.08691 -0.73449,0 -0.74084,0.84949 -0.74084,1.1617 0,0.76799 0.25789,1.10102 0.75319,1.10102 m -0.0123,-2.93582 c 1.24283,0 1.77976,0.84243 1.77976,1.80093 0,0.96485 -0.55739,1.83444 -1.80128,1.83444 -0.97825,0 -1.7526,-0.60466 -1.7526,-1.80798 0,-0.82832 0.42157,-1.82739 1.77412,-1.82739" />
      <path
         inkscape:connector-curvature="0"
         id="path1881"
         style="fill:#1d1d1b;fill-opacity:1;fill-rule:nonzero;stroke:none;stroke-width:0.50083208"
         d="m 281.88412,138.24409 c 0.70696,0 0.70696,-0.82832 0.70696,-0.9779 0,-0.38735 -0.0751,-1.04669 -0.68685,-1.04669 -0.3803,0 -0.69251,0.29281 -0.69251,1.02623 0,0.17004 0,0.99836 0.6724,0.99836 m 1.72543,-2.66312 c -0.0272,0.272 -0.0469,0.50271 -0.0469,0.84914 v 2.53506 c 0,1.2633 -1.05374,1.38642 -1.71309,1.38642 -0.48895,0 -1.44674,-0.0617 -1.50812,-1.10173 h 0.96449 c 0.0138,0.10196 0.0614,0.4759 0.59832,0.4759 0.2995,0 0.55738,-0.14217 0.62547,-0.44838 0.0399,-0.16969 0.0399,-0.29175 0.0469,-0.81598 -0.31891,0.42193 -0.67874,0.4699 -0.92322,0.4699 -0.98672,0 -1.44851,-0.85619 -1.44851,-1.68557 0,-0.86995 0.48296,-1.69898 1.46827,-1.69898 0.62512,0 0.85654,0.34008 0.95849,0.48966 l 0.0339,-0.45544 z" />
      <path
         inkscape:connector-curvature="0"
         id="path1885"
         style="fill:#1d1d1b;fill-opacity:1;fill-rule:nonzero;stroke:none;stroke-width:0.50083208"
         d="m 285.25618,135.5669 0.75388,2.37913 0.76765,-2.37913 h 0.99942 l -1.29787,3.37079 -0.41487,1.36631 h -1.01212 l 0.43533,-1.29152 -1.31868,-3.44558 z" />
      <path
         inkscape:connector-curvature="0"
         id="path1889"
         style="fill:#1d1d1b;fill-opacity:1;fill-rule:nonzero;stroke:none;stroke-width:0.50083208"
         d="m 291.24754,138.19033 c 0.11501,0.006 0.2921,0.0131 0.41487,0.0131 0.44768,0 0.83503,-0.0335 1.14018,-0.33937 0.41487,-0.41487 0.44238,-1.14794 0.44238,-1.38606 0,-0.69286 -0.23848,-1.3328 -0.89782,-1.51518 -0.21625,-0.0617 -0.4953,-0.0956 -1.09961,-0.0684 z m -1.06785,-4.09046 1.62524,0.007 c 0.27094,0 1.09961,0.006 1.69087,0.44132 0.61877,0.45473 0.83643,1.23014 0.83643,1.9297 0,1.50883 -0.80892,2.29693 -1.74025,2.46697 -0.18274,0.0335 -0.38664,0.054 -0.88265,0.054 h -1.52964 z" />
      <path
         inkscape:connector-curvature="0"
         id="path1893"
         style="fill:#1d1d1b;fill-opacity:1;fill-rule:nonzero;stroke:none;stroke-width:0.50083208"
         d="m 295.11155,134.0931 h 0.99907 v 1.94345 c 0.11501,-0.16298 0.36583,-0.51647 0.99166,-0.51647 0.50976,0 0.83573,0.25083 0.99907,0.46179 0.12241,0.17004 0.22436,0.48225 0.22436,0.93133 v 2.08563 h -0.99906 v -2.05176 c 0,-0.19755 0,-0.74754 -0.5641,-0.74754 -0.2861,0 -0.64558,0.16299 -0.64558,0.69992 l 0.007,2.09938 h -1.01212 z" />
      <path
         inkscape:connector-curvature="0"
         id="path1897"
         style="fill:#1d1d1b;fill-opacity:1;fill-rule:nonzero;stroke:none;stroke-width:0.50083208"
         d="m 300.04699,137.93919 c 0,0.23071 0.15557,0.4886 0.4893,0.4886 0.18309,0 0.33196,-0.0882 0.42792,-0.19685 0.17639,-0.21696 0.18944,-0.4826 0.18944,-0.84914 -0.64417,-0.0543 -1.10666,0.14958 -1.10666,0.55739 m 1.23613,1.05974 c -0.0346,-0.21025 -0.0346,-0.36689 -0.0346,-0.46919 -0.3803,0.55033 -0.83503,0.55033 -1.02447,0.55033 -0.49671,0 -0.72143,-0.14252 -0.85725,-0.27128 -0.2039,-0.20391 -0.2988,-0.48225 -0.2988,-0.75424 0,-0.272 0.0949,-0.77506 0.72672,-1.0668 0.42157,-0.18945 1.02658,-0.18945 1.3589,-0.18945 0,-0.22507 -0.006,-0.33443 -0.0462,-0.45614 -0.0889,-0.25153 -0.35419,-0.2861 -0.44944,-0.2861 -0.14252,0 -0.2921,0.0614 -0.381,0.1905 -0.0744,0.11571 -0.0744,0.22437 -0.0744,0.30621 h -0.98531 c 0.007,-0.18309 0.0279,-0.55033 0.38806,-0.80857 0.31221,-0.22401 0.71261,-0.27834 1.03963,-0.27834 0.2854,0 0.88265,0.0473 1.22238,0.44062 0.23213,0.2787 0.23918,0.68721 0.23918,0.84314 l 0.006,1.37936 c 0,0.29246 0.0208,0.58456 0.0808,0.86995 z" />
      <path
         inkscape:connector-curvature="0"
         id="path1901"
         style="fill:#1d1d1b;fill-opacity:1;fill-rule:nonzero;stroke:none;stroke-width:0.50083208"
         d="m 303.00979,136.41025 c 0,-0.16369 -0.0268,-0.65899 -0.0476,-0.85655 h 0.94473 l 0.0201,0.65899 c 0.12947,-0.29245 0.35349,-0.70661 1.1684,-0.66569 v 0.90382 c -1.01917,-0.0952 -1.0802,0.42792 -1.0802,0.85584 v 1.69227 h -1.00542 z" />
      <path
         inkscape:connector-curvature="0"
         id="path1905"
         style="fill:#1d1d1b;fill-opacity:1;fill-rule:nonzero;stroke:none;stroke-width:0.50083208"
         d="m 306.52032,135.5669 0.63253,2.59009 0.72637,-2.59009 h 1.10772 l 0.72002,2.59009 0.67239,-2.59009 h 0.99978 l -1.17617,3.43217 h -1.09325 l -0.70697,-2.54176 -0.72073,2.54176 h -1.10736 l -1.12078,-3.43217 z" />
      <path
         inkscape:connector-curvature="0"
         id="path1909"
         style="fill:#1d1d1b;fill-opacity:1;fill-rule:nonzero;stroke:none;stroke-width:0.50083208"
         d="m 312.64777,137.93919 c 0,0.23071 0.15558,0.4886 0.4886,0.4886 0.18309,0 0.33267,-0.0882 0.42862,-0.19685 0.17569,-0.21696 0.18944,-0.4826 0.18944,-0.84914 -0.64487,-0.0543 -1.10666,0.14958 -1.10666,0.55739 m 1.23543,1.05974 c -0.0332,-0.21025 -0.0332,-0.36689 -0.0332,-0.46919 -0.381,0.55033 -0.83644,0.55033 -1.02588,0.55033 -0.49671,0 -0.72143,-0.14252 -0.85654,-0.27128 -0.20462,-0.20391 -0.29951,-0.48225 -0.29951,-0.75424 0,-0.272 0.0949,-0.77506 0.72742,-1.0668 0.42122,-0.18945 1.02588,-0.18945 1.3589,-0.18945 0,-0.22507 -0.007,-0.33443 -0.0469,-0.45614 -0.0882,-0.25153 -0.35349,-0.2861 -0.44944,-0.2861 -0.14253,0 -0.2914,0.0614 -0.3803,0.1905 -0.0744,0.11571 -0.0744,0.22437 -0.0744,0.30621 h -0.98531 c 0.007,-0.18309 0.0279,-0.55033 0.38735,-0.80857 0.31291,-0.22401 0.71331,-0.27834 1.03963,-0.27834 0.2854,0 0.88336,0.0473 1.22308,0.44062 0.23143,0.2787 0.23778,0.68721 0.23778,0.84314 l 0.007,1.37936 c 0,0.29246 0.0205,0.58456 0.0811,0.86995 z" />
      <path
         inkscape:connector-curvature="0"
         id="path1913"
         style="fill:#1d1d1b;fill-opacity:1;fill-rule:nonzero;stroke:none;stroke-width:0.50083208"
         d="m 317.13465,138.41427 c 0.29139,0 0.52987,-0.17674 0.63817,-0.38699 0.14923,-0.28505 0.16298,-0.63853 0.16298,-0.80892 0,-0.6731 -0.2928,-1.03964 -0.74753,-1.03964 -0.6724,0 -0.74613,0.80892 -0.74613,1.155 0,0.57114 0.18944,1.08055 0.69251,1.08055 m 0.76764,-4.32117 h 1.01212 v 4.34869 c 0,0.20426 0.0131,0.42757 0.0275,0.55704 h -1.01988 l -0.0275,-0.49601 c -0.0674,0.12241 -0.13512,0.25153 -0.34572,0.38735 -0.25153,0.16369 -0.51612,0.1771 -0.6664,0.1771 -0.91687,0 -1.4605,-0.63183 -1.4605,-1.70604 0,-1.13488 0.61842,-1.84115 1.51483,-1.84115 0.61877,0 0.87736,0.34643 0.96555,0.46849 z" />
      <g
         clip-path="url(#clipPath4015)"
         id="g1919"
         transform="matrix(0.35277777,0,0,-0.35277777,106.47673,299.86764)"
         style="stroke-width:1.41968143">
        <path
           inkscape:connector-curvature="0"
           id="path1917"
           style="fill:#1d1d1b;fill-opacity:1;fill-rule:nonzero;stroke:none;stroke-width:1.41968143"
           d="m 335.581,530.581 h 1.641 v 13.494 h -1.641 z m 4.584,0 h 1.639 v 13.494 h -1.639 z m 10.426,5.359 c 0.07,-0.013 0.125,-0.021 0.168,-0.021 h 0.168 c 0.77,0 1.429,0.189 1.975,0.568 0.364,-0.253 0.791,-0.463 1.283,-0.632 0.489,-0.168 0.98,-0.251 1.472,-0.251 1.009,0 1.792,0.141 2.354,0.42 v -5.443 h 1.639 v 11.897 h 1.892 v 1.345 h -14.441 v -1.345 h 4.625 c 0.237,-0.295 0.454,-0.672 0.651,-1.133 0.195,-0.465 0.294,-1.012 0.294,-1.643 0,-0.756 -0.189,-1.345 -0.568,-1.764 -0.377,-0.421 -0.84,-0.63 -1.387,-0.63 -0.28,0 -0.511,0.041 -0.694,0.124 -0.182,0.085 -0.356,0.239 -0.524,0.464 l -0.441,0.566 c -0.297,0 -0.556,-0.076 -0.778,-0.231 -0.225,-0.156 -0.337,-0.378 -0.337,-0.671 0,-0.155 0.038,-0.321 0.115,-0.495 0.076,-0.175 0.228,-0.423 0.452,-0.746 l 4.057,-5.949 1.43,0.945 z m 3.951,1.219 c -0.266,0.057 -0.526,0.141 -0.778,0.25 0.392,0.621 0.588,1.356 0.588,2.209 0,0.631 -0.112,1.203 -0.336,1.713 -0.224,0.512 -0.448,0.895 -0.672,1.147 h 4.667 v -4.666 c -0.266,-0.211 -0.615,-0.387 -1.041,-0.526 -0.428,-0.14 -0.935,-0.211 -1.523,-0.211 -0.337,0 -0.64,0.028 -0.905,0.084 m 8.471,-6.578 h 1.64 v 11.897 h 1.891 v 1.345 h -5.421 v -1.345 h 1.89 z m 9.669,0 h 1.64 v 11.897 h 1.682 v 1.345 h -1.892 c -0.084,0.183 -0.14,0.361 -0.168,0.537 -0.029,0.174 -0.043,0.345 -0.043,0.514 0,0.59 0.229,1.082 0.684,1.482 0.456,0.401 1.166,0.598 2.134,0.598 0.687,0 1.359,-0.121 2.017,-0.366 0.66,-0.246 1.276,-0.558 1.851,-0.935 0.575,-0.381 1.093,-0.801 1.555,-1.262 0.463,-0.462 0.849,-0.917 1.156,-1.367 l 0.273,-0.378 1.22,0.672 -0.19,0.293 c -0.279,0.436 -0.672,0.927 -1.177,1.475 -0.505,0.545 -1.096,1.063 -1.775,1.554 -0.681,0.492 -1.444,0.905 -2.293,1.24 -0.848,0.337 -1.748,0.504 -2.7,0.504 -1.416,0 -2.517,-0.28 -3.3,-0.839 -0.785,-0.562 -1.179,-1.325 -1.179,-2.293 0,-0.28 0.04,-0.55 0.117,-0.808 0.077,-0.26 0.156,-0.466 0.242,-0.621 h -1.746 v -1.345 h 1.892 z m 6.212,9.638 c -0.497,-0.161 -0.931,-0.398 -1.303,-0.706 -0.372,-0.308 -0.659,-0.689 -0.863,-1.147 -0.202,-0.453 -0.303,-0.982 -0.303,-1.584 0,-0.66 0.112,-1.238 0.335,-1.735 0.224,-0.497 0.531,-0.919 0.916,-1.261 0.385,-0.344 0.829,-0.603 1.333,-0.779 0.505,-0.174 1.045,-0.262 1.619,-0.262 0.8,0 1.434,0.127 1.902,0.377 0.469,0.253 0.832,0.506 1.083,0.758 v -3.299 h 1.638 v 11.897 h 1.894 v 1.345 h -11.772 v -1.345 h 8.24 v -3.301 c -0.28,0.322 -0.675,0.618 -1.187,0.885 -0.511,0.263 -1.145,0.397 -1.903,0.397 -0.589,0 -1.131,-0.079 -1.629,-0.24 m 4.719,-3.753 c 0,-0.323 -0.07,-0.623 -0.21,-0.903 -0.139,-0.282 -0.332,-0.523 -0.578,-0.726 -0.246,-0.203 -0.53,-0.365 -0.852,-0.484 -0.321,-0.119 -0.666,-0.178 -1.029,-0.178 -0.856,0 -1.535,0.187 -2.039,0.566 -0.506,0.379 -0.757,1.037 -0.757,1.978 0,0.782 0.249,1.368 0.746,1.753 0.498,0.388 1.145,0.58 1.944,0.58 0.63,0 1.193,-0.162 1.683,-0.485 0.489,-0.322 0.854,-0.679 1.092,-1.07 z m 12.802,-5.885 h 1.62 v 11.897 h 1.89 v 1.345 h -13.201 v -1.345 h 5.718 v -1.682 h -1.85 c -0.365,0 -0.71,-0.046 -1.04,-0.137 -0.329,-0.092 -0.62,-0.23 -0.872,-0.42 -0.252,-0.189 -0.452,-0.431 -0.599,-0.726 -0.149,-0.294 -0.221,-0.637 -0.221,-1.03 0,-0.323 0.045,-0.602 0.137,-0.839 0.09,-0.239 0.206,-0.442 0.346,-0.612 0.14,-0.168 0.291,-0.304 0.452,-0.409 0.162,-0.104 0.313,-0.185 0.453,-0.241 -0.351,-0.184 -0.634,-0.427 -0.852,-0.735 -0.218,-0.309 -0.326,-0.688 -0.326,-1.135 0,-0.534 0.104,-1 0.314,-1.4 0.21,-0.398 0.51,-0.739 0.894,-1.019 0.386,-0.28 0.852,-0.49 1.399,-0.63 0.545,-0.14 1.15,-0.21 1.808,-0.21 0.883,0 1.656,0.133 2.323,0.399 0.665,0.267 1.201,0.589 1.607,0.967 z m -0.02,11.897 v -8.01 c -0.393,-0.531 -0.905,-0.963 -1.536,-1.292 -0.629,-0.329 -1.372,-0.491 -2.228,-0.491 -0.911,0 -1.611,0.123 -2.101,0.377 -0.491,0.25 -0.738,0.692 -0.738,1.323 0,0.407 0.132,0.723 0.389,0.957 0.261,0.23 0.657,0.345 1.19,0.345 h 2.5 v 1.367 h -2.92 c -0.408,0 -0.743,0.105 -1.011,0.316 -0.265,0.209 -0.398,0.511 -0.398,0.902 0,0.377 0.125,0.664 0.378,0.853 0.251,0.189 0.596,0.283 1.031,0.283 h 3.09 v 3.07 z m 5.002,-11.897 h 1.64 v 11.897 h 1.892 v 1.345 h -5.424 v -1.345 h 1.892 z m 20.055,11.897 v 1.345 h -12.279 v -1.345 h 3.576 c 0.265,-0.284 0.483,-0.588 0.651,-0.918 0.168,-0.331 0.254,-0.696 0.254,-1.09 0,-0.634 -0.208,-1.111 -0.621,-1.428 -0.413,-0.317 -1.147,-0.475 -2.197,-0.475 h -0.61 c 0.014,-0.847 0.161,-1.593 0.441,-2.235 0.28,-0.644 0.646,-1.181 1.093,-1.61 0.448,-0.432 0.961,-0.754 1.534,-0.966 0.576,-0.212 1.171,-0.318 1.788,-0.318 0.756,0 1.358,0.092 1.808,0.274 0.449,0.184 0.793,0.379 1.03,0.588 v -3.719 h 1.639 v 11.897 z m -4.677,-7.295 c -0.498,-0.209 -1.042,-0.315 -1.63,-0.315 -0.925,0 -1.669,0.222 -2.229,0.668 -0.56,0.447 -0.911,1.037 -1.05,1.772 1.106,0 1.962,0.263 2.564,0.793 0.603,0.53 0.904,1.253 0.904,2.174 0,0.479 -0.097,0.906 -0.294,1.281 -0.196,0.373 -0.414,0.681 -0.653,0.922 h 3.533 v -6.475 c -0.267,-0.337 -0.649,-0.608 -1.145,-0.82 m 6.147,-4.602 h 1.64 v 11.897 h 1.892 v 1.345 h -5.423 v -1.345 h 1.891 z m 9.671,0 h 1.637 v 11.897 h 1.683 v 1.345 h -1.892 c -0.085,0.183 -0.14,0.361 -0.167,0.537 -0.03,0.174 -0.043,0.345 -0.043,0.514 0,0.59 0.228,1.082 0.683,1.482 0.455,0.401 1.167,0.598 2.134,0.598 0.685,0 1.359,-0.121 2.018,-0.366 0.659,-0.246 1.275,-0.558 1.849,-0.935 0.575,-0.381 1.094,-0.801 1.556,-1.262 0.463,-0.462 0.848,-0.917 1.156,-1.367 l 0.272,-0.378 1.22,0.672 -0.188,0.293 c -0.281,0.436 -0.673,0.927 -1.177,1.475 -0.506,0.545 -1.099,1.063 -1.776,1.554 -0.68,0.492 -1.446,0.905 -2.293,1.24 -0.848,0.337 -1.747,0.504 -2.702,0.504 -1.415,0 -2.514,-0.28 -3.299,-0.839 -0.785,-0.562 -1.177,-1.325 -1.177,-2.293 0,-0.28 0.039,-0.55 0.115,-0.808 0.076,-0.26 0.158,-0.466 0.242,-0.621 h -1.745 v -1.345 h 1.894 z m 6.21,9.638 c -0.497,-0.161 -0.932,-0.398 -1.304,-0.706 -0.37,-0.308 -0.658,-0.689 -0.861,-1.147 -0.203,-0.453 -0.305,-0.982 -0.305,-1.584 0,-0.66 0.112,-1.238 0.337,-1.735 0.224,-0.497 0.528,-0.919 0.914,-1.261 0.386,-0.344 0.83,-0.603 1.336,-0.779 0.503,-0.174 1.043,-0.262 1.616,-0.262 0.799,0 1.436,0.127 1.903,0.377 0.47,0.253 0.831,0.506 1.083,0.758 v -3.299 h 1.64 v 11.897 h 1.893 v 1.345 h -11.773 v -1.345 h 8.24 v -3.301 c -0.28,0.322 -0.676,0.618 -1.187,0.885 -0.512,0.263 -1.147,0.397 -1.901,0.397 -0.59,0 -1.133,-0.079 -1.631,-0.24 m 4.719,-3.753 c 0,-0.323 -0.07,-0.623 -0.209,-0.903 -0.141,-0.282 -0.334,-0.523 -0.579,-0.726 -0.245,-0.203 -0.53,-0.365 -0.851,-0.484 -0.321,-0.119 -0.665,-0.178 -1.029,-0.178 -0.856,0 -1.537,0.187 -2.04,0.566 -0.505,0.379 -0.757,1.037 -0.757,1.978 0,0.782 0.249,1.368 0.746,1.753 0.498,0.388 1.146,0.58 1.945,0.58 0.628,0 1.191,-0.162 1.681,-0.485 0.492,-0.322 0.855,-0.679 1.093,-1.07 z m 11.645,0.799 h -4.351 v 5.213 h 4.351 z m -4.351,-1.367 h 4.351 v -5.317 h 1.64 v 11.897 h 1.892 v 1.345 h -12.066 v -1.345 h 2.566 v -5.213 h -0.253 c -0.407,0 -0.719,-0.11 -0.936,-0.327 -0.218,-0.217 -0.324,-0.508 -0.324,-0.871 0,-0.296 0.053,-0.568 0.167,-0.821 0.112,-0.252 0.265,-0.47 0.461,-0.651 0.197,-0.182 0.418,-0.326 0.664,-0.432 0.243,-0.105 0.506,-0.156 0.789,-0.156 0.252,0 0.47,0.042 0.66,0.124 0.189,0.085 0.32,0.169 0.389,0.254 z m 3.448,-6.834 c 0.223,0.198 0.459,0.349 0.704,0.455 0.244,0.105 0.51,0.156 0.789,0.156 0.49,0 0.855,-0.128 1.093,-0.389 0.237,-0.258 0.357,-0.613 0.357,-1.06 0,-0.532 -0.179,-0.959 -0.537,-1.282 -0.357,-0.324 -0.88,-0.484 -1.566,-0.484 -0.769,0 -1.499,0.203 -2.186,0.607 -0.686,0.409 -1.372,1.012 -2.062,1.81 l -1.112,-0.946 c 0.715,-0.911 1.548,-1.616 2.501,-2.113 0.953,-0.497 1.942,-0.747 2.963,-0.747 1.179,0 2.087,0.291 2.724,0.874 0.638,0.581 0.956,1.327 0.956,2.24 0,0.81 -0.263,1.49 -0.788,2.038 -0.526,0.548 -1.279,0.819 -2.26,0.819 -0.491,0 -0.956,-0.088 -1.399,-0.263 -0.44,-0.175 -0.773,-0.389 -0.998,-0.641 z m 11.372,7.758 c 0,-0.448 -0.063,-0.826 -0.19,-1.135 -0.125,-0.308 -0.3,-0.563 -0.525,-0.766 -0.224,-0.204 -0.48,-0.351 -0.767,-0.442 -0.287,-0.09 -0.592,-0.137 -0.916,-0.137 -0.658,0 -1.193,0.21 -1.606,0.632 -0.414,0.421 -0.62,1.017 -0.62,1.785 0,0.379 0.066,0.709 0.199,0.988 0.134,0.283 0.305,0.515 0.516,0.704 0.21,0.192 0.451,0.329 0.724,0.421 0.274,0.092 0.557,0.137 0.852,0.137 0.462,0 0.879,-0.077 1.251,-0.231 0.37,-0.154 0.732,-0.421 1.082,-0.799 z m 6.558,2.839 c -0.643,0.505 -1.386,0.756 -2.227,0.756 -0.603,0 -1.154,-0.127 -1.652,-0.381 -0.496,-0.253 -0.864,-0.581 -1.102,-0.984 v 3.426 h 3.027 v 1.345 h -11.962 v -1.345 h 7.338 v -3.155 c -0.646,0.731 -1.508,1.094 -2.587,1.094 -0.49,0 -0.959,-0.072 -1.409,-0.221 -0.448,-0.146 -0.84,-0.368 -1.176,-0.662 -0.338,-0.293 -0.605,-0.662 -0.809,-1.101 -0.204,-0.444 -0.306,-0.957 -0.306,-1.545 0,-0.66 0.106,-1.235 0.317,-1.725 0.208,-0.49 0.492,-0.904 0.851,-1.24 0.357,-0.338 0.763,-0.59 1.219,-0.758 0.456,-0.167 0.929,-0.254 1.42,-0.254 0.531,0 1.018,0.1 1.459,0.295 0.442,0.197 0.783,0.471 1.021,0.82 v -3.445 h 1.597 v 5.669 c 0,0.835 0.214,1.503 0.641,2.004 0.428,0.503 1.061,0.755 1.902,0.755 0.59,0 1.072,-0.183 1.451,-0.547 z m 5.383,-1.598 v -7.482 h 1.64 v 11.897 h 1.89 v 1.345 h -12.128 v -1.345 h 8.598 v -2.986 h -3.555 c -1.19,0 -2.12,-0.317 -2.784,-0.957 -0.665,-0.638 -0.998,-1.542 -0.998,-2.722 0,-1.008 0.191,-1.943 0.579,-2.806 0.385,-0.86 0.893,-1.734 1.522,-2.615 l 1.409,0.734 c -0.588,0.883 -1.04,1.685 -1.355,2.408 -0.315,0.721 -0.473,1.46 -0.473,2.217 0,0.674 0.188,1.227 0.566,1.658 0.379,0.438 0.996,0.654 1.852,0.654 z m 15.385,4.415 v 1.345 h -12.274 v -1.345 h 3.572 c 0.266,-0.284 0.484,-0.588 0.652,-0.918 0.168,-0.331 0.253,-0.696 0.253,-1.09 0,-0.634 -0.207,-1.111 -0.621,-1.428 -0.412,-0.317 -1.147,-0.475 -2.196,-0.475 h -0.61 c 0.014,-0.847 0.161,-1.593 0.442,-2.235 0.279,-0.644 0.644,-1.181 1.092,-1.61 0.448,-0.432 0.961,-0.754 1.535,-0.966 0.575,-0.212 1.17,-0.318 1.786,-0.318 0.758,0 1.359,0.092 1.808,0.274 0.448,0.184 0.793,0.379 1.031,0.588 v -3.719 h 1.639 v 11.897 z m -4.677,-7.295 c -0.497,-0.209 -1.04,-0.315 -1.627,-0.315 -0.927,0 -1.669,0.222 -2.23,0.668 -0.561,0.447 -0.909,1.037 -1.05,1.772 1.106,0 1.962,0.263 2.563,0.793 0.603,0.53 0.905,1.253 0.905,2.174 0,0.479 -0.098,0.906 -0.295,1.281 -0.197,0.373 -0.412,0.681 -0.652,0.922 h 3.533 v -6.475 c -0.267,-0.337 -0.648,-0.608 -1.147,-0.82 m -4.824,11.921 c 0.197,0.1 0.425,0.188 0.684,0.262 0.26,0.077 0.529,0.114 0.809,0.114 0.364,0 0.688,-0.039 0.967,-0.116 0.281,-0.076 0.536,-0.197 0.767,-0.355 0.232,-0.16 0.446,-0.358 0.642,-0.59 0.196,-0.23 0.392,-0.494 0.588,-0.788 l 1.619,-2.437 h 1.281 l -1.597,3.026 c -0.476,0.912 -1.051,1.621 -1.722,2.134 -0.674,0.51 -1.522,0.766 -2.545,0.766 -0.391,0 -0.773,-0.044 -1.144,-0.136 -0.372,-0.09 -0.676,-0.199 -0.915,-0.327 z m 17.322,-16.523 h 1.641 v 13.494 h -1.641 z m 4.582,0 h 1.64 v 13.494 h -1.64 z" />
      </g>
    </g>
  </g>
</svg>
